<svg width="48" height="48" viewBox="0 0 48 48" fill="none" xmlns="http://www.w3.org/2000/svg">
<path d="M23.8125 33C18.7813 33 16 29.5625 16 24.5C16 19.4688 18.8125 16 23.7188 16C28.4063 16 31.3438 18.9063 31.3438 23.75V24.875C31.3438 25.4375 31 25.7187 30.5313 25.7187H20.1563C19.9688 25.7187 19.8438 25.8437 19.8438 26.0625C19.9375 28.5625 21.6875 29.9687 23.8125 29.9687C25.4688 29.9687 26.5 29.3125 27.125 28.2187C27.3438 27.8437 27.5625 27.6562 27.9063 27.6562H30.3125C30.6563 27.6562 31 27.9375 30.875 28.4062C30.0938 31.0625 27.625 33 23.8125 33ZM19.8125 22.5625C19.8125 22.75 19.9375 22.875 20.1563 22.875H27.4063C27.5938 22.875 27.6875 22.75 27.6875 22.5625C27.6875 20.5937 26.1875 18.9375 23.7188 18.9375C21.4063 18.9375 19.9063 20.5937 19.8125 22.5625Z" fill="white"/>
</svg>
