<svg width="317" height="113" viewBox="0 0 317 113" fill="none" xmlns="http://www.w3.org/2000/svg">
<line x1="315" y1="-8.74228e-08" x2="315" y2="110" stroke="white" stroke-width="4"/>
<path d="M245.366 112.56C243.986 112.56 243.25 111.088 243.894 109.8L251.346 93.332C251.806 92.412 251.622 91.86 251.346 91.124L233.866 52.392C233.038 50.644 234.05 49.448 235.246 49.448H240.766C241.594 49.448 241.962 49.816 242.514 50.828L255.854 81.096C256.13 81.648 256.958 81.648 257.234 81.096L270.574 50.828C271.034 49.816 271.494 49.448 272.322 49.448H277.658C278.854 49.448 279.866 50.644 279.13 52.392L252.45 111.18C251.99 112.192 251.53 112.56 250.702 112.56H245.366Z" fill="white"/>
<path d="M217.586 95.9999C208.202 95.9999 203.51 90.2039 203.51 81.8319V58.3719C203.51 57.8199 203.142 57.4519 202.59 57.4519H192.838C191.826 57.4519 190.998 56.6239 190.998 55.6119V51.2879C190.998 50.2759 191.826 49.4479 192.838 49.4479H202.59C203.142 49.4479 203.51 49.0799 203.51 48.5279V35.0039C203.51 33.9919 204.338 33.1639 205.35 33.1639H209.95C210.962 33.1639 211.79 33.9919 211.79 35.0039V48.5279C211.79 49.0799 212.158 49.4479 212.71 49.4479H226.05C227.062 49.4479 227.89 50.2759 227.89 51.2879V55.6119C227.89 56.6239 227.062 57.4519 226.05 57.4519H212.71C212.158 57.4519 211.79 57.8199 211.79 58.3719V81.0039C211.79 85.5119 214.366 87.7199 218.506 87.7199H226.05C227.062 87.7199 227.89 88.5479 227.89 89.5599V94.1599C227.89 95.1719 227.062 95.9999 226.05 95.9999H217.586Z" fill="white"/>
<path d="M141.513 112.56C140.501 112.56 139.673 111.732 139.673 110.72V51.288C139.673 50.276 140.501 49.448 141.513 49.448H144.825C147.125 49.448 146.757 52.484 149.333 52.484C152.277 52.484 154.025 47.976 163.685 47.976C169.849 47.976 174.909 50.184 178.497 54.048C182.729 58.372 185.029 64.996 185.029 72.724C185.029 80.452 182.729 87.076 178.497 91.492C174.909 95.356 169.849 97.472 163.685 97.472C154.485 97.472 152.369 93.424 149.793 93.424C148.597 93.424 147.953 94.068 147.953 95.448V110.72C147.953 111.732 147.125 112.56 146.113 112.56H141.513ZM147.677 72.724C147.677 77.508 148.873 81.556 151.173 84.408C153.657 87.444 157.245 89.284 162.029 89.284C166.721 89.284 170.493 87.444 172.885 84.408C175.185 81.556 176.473 77.508 176.473 72.724C176.473 68.032 175.185 63.892 172.885 61.04C170.493 58.004 166.721 56.256 162.029 56.256C157.245 56.256 153.657 58.004 151.173 61.04C148.873 63.892 147.677 68.032 147.677 72.724Z" fill="white"/>
<path d="M58.8566 96C57.8446 96 57.0166 95.172 57.0166 94.16V51.288C57.0166 50.276 57.8446 49.448 58.8566 49.448H62.2606C64.4686 49.448 64.3766 52.116 66.4926 52.116C68.8846 52.116 70.5406 47.976 77.9006 47.976C87.4686 47.976 89.0326 54.232 92.0686 54.232C95.1046 54.232 97.2206 47.976 107.065 47.976C116.541 47.976 123.993 54.876 123.993 66.56V94.16C123.993 95.172 123.165 96 122.153 96H117.553C116.541 96 115.713 95.172 115.713 94.16V67.388C115.713 60.488 111.297 56.256 105.225 56.256C99.0606 56.256 94.7366 60.488 94.7366 67.388V94.16C94.7366 95.172 93.9086 96 92.8966 96H88.2046C87.1926 96 86.3646 95.172 86.3646 94.16V67.388C86.3646 60.488 81.9486 56.256 75.7846 56.256C69.7126 56.256 65.2966 60.488 65.2966 67.388V94.16C65.2966 95.172 64.4686 96 63.4566 96H58.8566Z" fill="white"/>
<path d="M23.2322 97.472C8.69618 97.472 0.78418 87.352 0.78418 72.724C0.78418 58.464 8.69618 47.976 22.9562 47.976C36.5722 47.976 44.8522 56.808 44.8522 70.056V73.368C44.8522 74.748 43.8402 75.576 42.6442 75.576H10.8122C10.2602 75.576 9.89218 75.944 9.89218 76.496C10.3522 85.236 15.9642 90.112 23.2322 90.112C28.8442 90.112 32.5242 87.72 34.6402 83.672C35.2842 82.568 35.9282 82.016 36.9402 82.016H41.8162C42.8282 82.016 43.7482 82.844 43.3802 84.132C41.1722 91.768 33.9962 97.472 23.2322 97.472ZM9.89218 67.48C9.89218 68.124 10.2602 68.492 10.8122 68.492H35.2842C35.8362 68.492 36.2042 68.124 36.2042 67.48C36.2042 60.948 31.4202 55.244 22.9562 55.244C14.8602 55.244 10.2602 60.948 9.89218 67.48Z" fill="white"/>
</svg>
