<svg width="247" height="41" viewBox="0 0 247 41" fill="none" xmlns="http://www.w3.org/2000/svg">
<path d="M235.71 32.292C228.304 32.292 224.21 27.232 224.21 19.78C224.21 12.374 228.35 7.26801 235.572 7.26801C242.472 7.26801 246.796 11.546 246.796 18.676V20.332C246.796 21.16 246.29 21.574 245.6 21.574H230.328C230.052 21.574 229.868 21.758 229.868 22.08C230.006 25.76 232.582 27.83 235.71 27.83C238.148 27.83 239.666 26.864 240.586 25.254C240.908 24.702 241.23 24.426 241.736 24.426H245.278C245.784 24.426 246.29 24.84 246.106 25.53C244.956 29.44 241.322 32.292 235.71 32.292ZM229.822 16.928C229.822 17.204 230.006 17.388 230.328 17.388H241C241.276 17.388 241.414 17.204 241.414 16.928C241.414 14.03 239.206 11.592 235.572 11.592C232.168 11.592 229.96 14.03 229.822 16.928Z" fill="white"/>
<path d="M209.065 40.572C203.545 40.572 199.451 37.858 198.577 33.764C198.439 33.12 198.715 32.752 199.405 32.752H202.947C203.545 32.752 203.959 32.936 204.235 33.488C205.063 35.098 206.673 36.11 209.111 36.11C212.561 36.11 214.907 33.994 214.907 31.004V30.682C214.907 29.992 214.631 29.67 214.079 29.67C212.883 29.67 212.055 31.418 207.869 31.418C204.373 31.418 201.705 30.084 199.911 27.876C198.209 25.806 197.289 22.862 197.289 19.412C197.289 15.87 198.209 12.926 199.911 10.81C201.705 8.55601 204.373 7.26801 207.869 7.26801C212.331 7.26801 213.205 9.2 214.585 9.2C215.827 9.2 215.597 8.05 216.747 8.05H219.093C219.599 8.05 220.013 8.464 220.013 8.97001V30.038C220.013 36.432 215.505 40.572 209.065 40.572ZM202.579 19.412C202.579 21.436 203.085 23.092 204.097 24.38C205.155 25.668 206.719 26.404 208.743 26.404C210.813 26.404 212.377 25.668 213.435 24.38C214.447 23.092 214.953 21.436 214.953 19.412C214.953 17.342 214.447 15.686 213.435 14.444C212.377 13.11 210.813 12.374 208.743 12.374C206.719 12.374 205.155 13.11 204.097 14.444C203.085 15.686 202.579 17.342 202.579 19.412Z" fill="white"/>
<path d="M180.854 32.292C175.426 32.292 172.298 28.934 172.298 24.518C172.298 20.194 175.058 17.112 180.854 17.112H187.708C188.03 17.112 188.168 16.974 188.168 16.652V15.732C188.168 13.386 186.558 11.776 183.338 11.776C180.486 11.776 178.6 12.88 178.416 14.49C178.278 15.134 177.864 15.272 177.312 15.272H174.138C173.494 15.272 173.172 14.95 173.218 14.352C173.356 10.258 177.496 7.26801 183.246 7.26801C189.456 7.26801 193.228 10.028 193.228 15.916V30.59C193.228 31.096 192.814 31.51 192.308 31.51H189.962C188.628 31.51 188.95 30.038 187.57 30.038C186.328 30.038 185.086 32.292 180.854 32.292ZM177.68 24.288C177.68 26.634 179.428 27.83 182.326 27.83C185.5 27.83 188.168 26.128 188.168 23V21.85C188.168 21.436 188.03 21.298 187.708 21.298H181.222C178.876 21.298 177.68 22.402 177.68 24.288Z" fill="white"/>
<path d="M146.964 39.79C146.458 39.79 146.044 39.376 146.044 38.87V8.97001C146.044 8.464 146.458 8.05 146.964 8.05H149.356C150.598 8.05 150.368 9.52201 151.656 9.52201C153.082 9.52201 154.002 7.26801 158.556 7.26801C161.776 7.26801 164.444 8.41801 166.284 10.442C168.354 12.65 169.504 15.916 169.504 19.78C169.504 23.644 168.354 26.91 166.284 29.118C164.444 31.188 161.776 32.292 158.556 32.292C154.37 32.292 153.358 30.498 152.162 30.498C151.564 30.498 151.288 30.774 151.288 31.464V38.87C151.288 39.376 150.874 39.79 150.368 39.79H146.964ZM151.104 19.78C151.104 21.85 151.656 23.644 152.668 24.932C153.772 26.266 155.428 27.094 157.59 27.094C159.752 27.094 161.454 26.266 162.512 24.932C163.57 23.644 164.122 21.85 164.122 19.78C164.122 17.71 163.57 15.916 162.512 14.674C161.454 13.294 159.752 12.466 157.59 12.466C155.428 12.466 153.772 13.294 152.668 14.674C151.656 15.916 151.104 17.71 151.104 19.78Z" fill="white"/>
<path d="M135.24 31.51C134.734 31.51 134.32 31.096 134.32 30.59V25.346C134.32 24.84 134.734 24.426 135.24 24.426H140.484C140.99 24.426 141.404 24.84 141.404 25.346V30.59C141.404 31.096 140.99 31.51 140.484 31.51H135.24Z" fill="white"/>
<path d="M117.653 39.79C117.009 39.79 116.595 39.054 116.917 38.41L120.643 30.084C120.873 29.578 120.781 29.348 120.597 28.934L112.041 9.47599C111.673 8.64799 112.133 8.04999 112.777 8.04999H116.779C117.193 8.04999 117.423 8.23399 117.653 8.73999L123.449 22.494C123.587 22.77 124.001 22.77 124.139 22.494L129.935 8.73999C130.165 8.23399 130.395 8.04999 130.809 8.04999H134.719C135.363 8.04999 135.823 8.64799 135.455 9.47599L122.391 39.1C122.161 39.606 121.931 39.79 121.517 39.79H117.653Z" fill="white"/>
<path d="M105.014 31.51C100.046 31.51 97.6084 28.382 97.6084 24.104V13.524C97.6084 13.248 97.4244 13.064 97.1484 13.064H92.5484C92.0424 13.064 91.6284 12.65 91.6284 12.144V8.97C91.6284 8.464 92.0424 8.05 92.5484 8.05H97.1484C97.4244 8.05 97.6084 7.866 97.6084 7.59V0.920002C97.6084 0.414 98.0224 0 98.5284 0H101.932C102.438 0 102.852 0.414 102.852 0.920002V7.59C102.852 7.866 103.036 8.05 103.312 8.05H109.66C110.166 8.05 110.58 8.464 110.58 8.97V12.144C110.58 12.65 110.166 13.064 109.66 13.064H103.312C103.036 13.064 102.852 13.248 102.852 13.524V23.368C102.852 25.3 103.956 26.266 105.796 26.266H109.66C110.166 26.266 110.58 26.68 110.58 27.186V30.59C110.58 31.096 110.166 31.51 109.66 31.51H105.014Z" fill="white"/>
<path d="M67.8067 39.79C67.3007 39.79 66.8867 39.376 66.8867 38.87V8.97001C66.8867 8.464 67.3007 8.05 67.8067 8.05H70.1987C71.4407 8.05 71.2107 9.52201 72.4987 9.52201C73.9247 9.52201 74.8447 7.26801 79.3987 7.26801C82.6187 7.26801 85.2867 8.41801 87.1267 10.442C89.1967 12.65 90.3467 15.916 90.3467 19.78C90.3467 23.644 89.1967 26.91 87.1267 29.118C85.2867 31.188 82.6187 32.292 79.3987 32.292C75.2127 32.292 74.2007 30.498 73.0047 30.498C72.4067 30.498 72.1307 30.774 72.1307 31.464V38.87C72.1307 39.376 71.7167 39.79 71.2107 39.79H67.8067ZM71.9467 19.78C71.9467 21.85 72.4987 23.644 73.5107 24.932C74.6147 26.266 76.2707 27.094 78.4327 27.094C80.5947 27.094 82.2967 26.266 83.3547 24.932C84.4127 23.644 84.9647 21.85 84.9647 19.78C84.9647 17.71 84.4127 15.916 83.3547 14.674C82.2967 13.294 80.5947 12.466 78.4327 12.466C76.2707 12.466 74.6147 13.294 73.5107 14.674C72.4987 15.916 71.9467 17.71 71.9467 19.78Z" fill="white"/>
<path d="M27.7689 31.51C27.2629 31.51 26.8489 31.096 26.8489 30.59V8.97001C26.8489 8.464 27.2629 8.05 27.7689 8.05H30.2069C31.4489 8.05 31.3109 9.384 32.3689 9.384C33.5649 9.384 34.3929 7.26801 38.2109 7.26801C42.9489 7.26801 43.7309 10.258 45.2029 10.258C46.6749 10.258 47.7329 7.26801 52.6089 7.26801C57.5769 7.26801 61.2109 10.81 61.2109 16.744V30.59C61.2109 31.096 60.7969 31.51 60.2909 31.51H56.8869C56.3809 31.51 55.9669 31.096 55.9669 30.59V17.434C55.9669 14.398 54.0809 12.466 51.3209 12.466C48.5609 12.466 46.6749 14.398 46.6749 17.434V30.59C46.6749 31.096 46.2609 31.51 45.7549 31.51H42.3509C41.8449 31.51 41.4309 31.096 41.4309 30.59V17.434C41.4309 14.398 39.4989 12.466 36.7389 12.466C34.0249 12.466 32.0929 14.398 32.0929 17.434V30.59C32.0929 31.096 31.6789 31.51 31.1729 31.51H27.7689Z" fill="white"/>
<path d="M11.616 32.292C4.20997 32.292 0.115967 27.232 0.115967 19.78C0.115967 12.374 4.25597 7.26801 11.478 7.26801C18.378 7.26801 22.702 11.546 22.702 18.676V20.332C22.702 21.16 22.196 21.574 21.506 21.574H6.23397C5.95797 21.574 5.77397 21.758 5.77397 22.08C5.91197 25.76 8.48797 27.83 11.616 27.83C14.054 27.83 15.572 26.864 16.492 25.254C16.814 24.702 17.136 24.426 17.642 24.426H21.184C21.69 24.426 22.196 24.84 22.012 25.53C20.862 29.44 17.228 32.292 11.616 32.292ZM5.72797 16.928C5.72797 17.204 5.91197 17.388 6.23397 17.388H16.906C17.182 17.388 17.32 17.204 17.32 16.928C17.32 14.03 15.112 11.592 11.478 11.592C8.07397 11.592 5.86597 14.03 5.72797 16.928Z" fill="white"/>
</svg>
